RobotoExtremo-opsz144-wght900-wdth25-XOPQ175.ufo
<glyph name="parenleft" format="2">
  <advance width="705"/>
  <unicode hex="0028"/>
  <outline>
    <contour>
      <point x="688.5949367088608" y="-436.0" type="line"/>
      <point x="408.56962025316454" y="-374.0"/>
      <point x="53.0" y="85.60759493670886"/>
      <point x="53.0" y="514.0" type="qcurve" smooth="yes"/>
      <point x="53.0" y="525.0" type="line" smooth="yes"/>
      <point x="53.0" y="944.7088607594937"/>
      <point x="408.56962025316454" y="1414.0"/>
      <point x="688.5949367088608" y="1476.0" type="qcurve"/>
      <point x="688.5949367088608" y="1252.392405063291" type="line"/>
      <point x="600.4074713870024" y="1201.392405063291"/>
      <point x="535.5949367088608" y="900.8227848101266"/>
      <point x="535.5949367088608" y="532.0" type="qcurve" smooth="yes"/>
      <point x="535.5949367088608" y="508.0" type="line" smooth="yes"/>
      <point x="535.5949367088608" y="131.20253164556962"/>
      <point x="600.4074713870024" y="-161.39240506329116"/>
      <point x="688.5949367088608" y="-212.39240506329116" type="qcurve"/>
    </contour>
  </outline>
</glyph>
<glyph name="plus" format="2">
  <advance width="836"/>
  <unicode hex="002B"/>
  <outline>
    <contour>
      <point x="23.405063291139243" y="506.56962025316454" type="line"/>
      <point x="23.405063291139243" y="842.5696202531645" type="line"/>
      <point x="812.7594936708861" y="842.5696202531645" type="line"/>
      <point x="812.7594936708861" y="506.56962025316454" type="line"/>
    </contour>
    <contour>
      <point x="205.01265822784808" y="195.21518987341773" type="line"/>
      <point x="205.01265822784808" y="1152.7848101265822" type="line"/>
      <point x="631.1518987341772" y="1152.7848101265822" type="line"/>
      <point x="631.1518987341772" y="195.21518987341773" type="line"/>
    </contour>
  </outline>
</glyph>
<glyph name="comma" format="2">
  <advance width="644"/>
  <unicode hex="002C"/>
  <outline>
    <contour>
      <point x="-14.240506329113941" y="-145.0" type="line"/>
      <point x="31.303797468354418" y="-88.0"/>
      <point x="69.0" y="39.0"/>
      <point x="69.0" y="100.0" type="qcurve" smooth="yes"/>
      <point x="69.0" y="496.0" type="line"/>
      <point x="643.7721518987341" y="496.0" type="line"/>
      <point x="643.7721518987341" y="104.0" type="line" smooth="yes"/>
      <point x="643.7721518987341" y="29.0"/>
      <point x="565.8481012658228" y="-138.0"/>
      <point x="498.9113924050632" y="-183.0" type="qcurve"/>
    </contour>
  </outline>
</glyph>
<glyph name="slash" format="2">
  <advance width="889"/>
  <unicode hex="002F"/>
  <outline>
    <contour>
      <point x="-74.0" y="-47.0" type="line"/>
      <point x="339.0" y="1456.0" type="line"/>
      <point x="892.9620253164557" y="1456.0" type="line"/>
      <point x="478.96202531645577" y="-47.0" type="line"/>
    </contour>
  </outline>
</glyph>
<glyph name="semicolon" format="2">
  <advance width="495"/>
  <unicode hex="003B"/>
  <outline>
    <contour>
      <point x="-16.443037974683534" y="-146.0" type="line"/>
      <point x="25.101265822784825" y="-96.0"/>
      <point x="64.79746835443038" y="13.0"/>
      <point x="64.79746835443038" y="73.0" type="qcurve" smooth="yes"/>
      <point x="64.79746835443038" y="335.0" type="line"/>
      <point x="456.3164556962025" y="335.0" type="line"/>
      <point x="456.3164556962025" y="76.0" type="line" smooth="yes"/>
      <point x="457.3164556962025" y="2.0"/>
      <point x="382.7974683544304" y="-141.0"/>
      <point x="324.70886075949375" y="-182.0" type="qcurve"/>
    </contour>
    <contour>
      <point x="3.0" y="751.0" type="qcurve" smooth="yes"/>
      <point x="3.0" y="828.0"/>
      <point x="129.63291139240508" y="933.0"/>
      <point x="248.55696202531647" y="933.0" type="qcurve" smooth="yes"/>
      <point x="365.4810126582279" y="933.0"/>
      <point x="493.11392405063293" y="828.0"/>
      <point x="493.11392405063293" y="750.0" type="qcurve" smooth="yes"/>
      <point x="493.11392405063293" y="670.0"/>
      <point x="365.4810126582279" y="566.0"/>
      <point x="247.55696202531647" y="566.0" type="qcurve" smooth="yes"/>
      <point x="129.63291139240508" y="566.0"/>
      <point x="3.0" y="674.0"/>
    </contour>
  </outline>
</glyph>
<glyph name="question" format="2">
  <advance width="1081"/>
  <unicode hex="003F"/>
  <outline>
    <contour>
      <point x="255.72151898734177" y="175.0" type="qcurve" smooth="yes"/>
      <point x="255.72151898734177" y="255.0"/>
      <point x="392.3544303797468" y="368.0"/>
      <point x="522.2784810126583" y="368.0" type="qcurve" smooth="yes"/>
      <point x="650.2025316455696" y="368.0"/>
      <point x="787.8354430379745" y="255.0"/>
      <point x="787.8354430379745" y="175.0" type="qcurve" smooth="yes"/>
      <point x="787.8354430379745" y="95.0"/>
      <point x="651.2025316455696" y="-18.0"/>
      <point x="522.2784810126583" y="-18.0" type="qcurve" smooth="yes"/>
      <point x="395.3544303797469" y="-18.0"/>
      <point x="255.72151898734177" y="96.0"/>
    </contour>
    <contour>
      <point x="13.0" y="987.0" type="line"/>
      <point x="13.0" y="1142.0" type="line" smooth="yes"/>
      <point x="13.0" y="1296.0"/>
      <point x="283.5443037974684" y="1472.0"/>
      <point x="533.6835443037975" y="1472.0" type="qcurve" smooth="yes"/>
      <point x="804.3924050632911" y="1472.0"/>
      <point x="1085.2278481012659" y="1326.0"/>
      <point x="1085.2278481012659" y="1158.0" type="qcurve" smooth="yes"/>
      <point x="1085.2278481012659" y="1036.0"/>
      <point x="1007.0506329113925" y="875.0"/>
      <point x="915.8481012658228" y="791.0" type="qcurve" smooth="yes"/>
      <point x="830.0506329113923" y="699.0"/>
      <point x="756.253164556962" y="615.0"/>
      <point x="756.253164556962" y="559.0" type="qcurve" smooth="yes"/>
      <point x="756.253164556962" y="435.0" type="line"/>
      <point x="288.1392405063291" y="435.0" type="line"/>
      <point x="288.1392405063291" y="572.0" type="line" smooth="yes"/>
      <point x="289.1392405063291" y="670.0"/>
      <point x="382.4810126582279" y="791.0"/>
      <point x="482.15189873417717" y="896.0" type="qcurve" smooth="yes"/>
      <point x="562.7974683544304" y="969.0"/>
      <point x="583.1139240506329" y="1035.0"/>
      <point x="583.1139240506329" y="1092.0" type="qcurve" smooth="yes"/>
      <point x="583.1139240506329" y="1152.0"/>
      <point x="549.6835443037975" y="1198.0"/>
      <point x="515.6835443037975" y="1198.0" type="qcurve" smooth="yes"/>
      <point x="476.6835443037975" y="1198.0"/>
      <point x="443.6835443037975" y="1152.0"/>
      <point x="443.6835443037975" y="1100.0" type="qcurve" smooth="yes"/>
      <point x="443.6835443037975" y="987.0" type="line"/>
    </contour>
  </outline>
</glyph>
<glyph name="C" format="2">
  <advance width="1234"/>
  <unicode hex="0043"/>
  <anchor x="631.5569620253165" y="0" name="bottom"/>
  <outline>
    <contour>
      <point x="6.0" y="605.0" type="qcurve" smooth="yes"/>
      <point x="6.0" y="843.0" type="line" smooth="yes"/>
      <point x="6.0" y="1158.0"/>
      <point x="328.11392405063293" y="1476.0"/>
      <point x="631.5569620253165" y="1476.0" type="qcurve" smooth="yes"/>
      <point x="929.5569620253165" y="1476.0"/>
      <point x="1214.1518987341772" y="1208.4303797468353"/>
      <point x="1226.6835443037976" y="967.0" type="qcurve" smooth="yes"/>
      <point x="1227.253164556962" y="744.0" type="line"/>
      <point x="651.5569620253165" y="744.0" type="line"/>
      <point x="650.9873417721519" y="1038.0" type="line" smooth="yes"/>
      <point x="645.2911392405064" y="1055.4303797468353"/>
      <point x="644.5569620253165" y="1067.0"/>
      <point x="637.5569620253165" y="1067.0" type="qcurve" smooth="yes"/>
      <point x="630.5569620253165" y="1067.0"/>
      <point x="623.5569620253165" y="1052.0"/>
      <point x="623.5569620253165" y="1038.0" type="qcurve" smooth="yes"/>
      <point x="623.5569620253165" y="413.0" type="line" smooth="yes"/>
      <point x="623.5569620253165" y="393.0"/>
      <point x="627.5569620253165" y="377.0"/>
      <point x="637.5569620253165" y="377.0" type="qcurve" smooth="yes"/>
      <point x="649.5569620253165" y="377.0"/>
      <point x="652.6962025316456" y="396.0"/>
      <point x="651.5569620253165" y="406.0" type="qcurve" smooth="yes"/>
      <point x="651.5569620253165" y="692.0" type="line"/>
      <point x="1228.253164556962" y="692.0" type="line"/>
      <point x="1228.253164556962" y="538.0" type="line" smooth="yes"/>
      <point x="1227.113924050633" y="267.0"/>
      <point x="919.5569620253165" y="-19.0"/>
      <point x="631.5569620253165" y="-19.0" type="qcurve" smooth="yes"/>
      <point x="345.11392405063293" y="-19.0"/>
      <point x="6.0" y="273.0"/>
    </contour>
  </outline>
</glyph>
<glyph name="E" format="2">
  <advance width="934"/>
  <unicode hex="0045"/>
  <anchor x="506.0" y="1361.367088607595" name="top"/>
  <outline>
    <contour>
      <point x="10.0" y="0.0" type="line"/>
      <point x="10.0" y="1456.0" type="line"/>
      <point x="922.9620253164558" y="1456.0" type="line"/>
      <point x="922.9620253164558" y="990.0" type="line"/>
      <point x="560.0" y="990.0" type="line"/>
      <point x="560.0" y="962.0" type="line"/>
      <point x="904.9620253164558" y="962.0" type="line"/>
      <point x="904.9620253164558" y="496.0" type="line"/>
      <point x="560.0" y="496.0" type="line"/>
      <point x="560.0" y="466.0" type="line"/>
      <point x="929.9620253164558" y="466.0" type="line"/>
      <point x="929.9620253164558" y="0.0" type="line"/>
    </contour>
  </outline>
</glyph>
<glyph name="G" format="2">
  <advance width="1250"/>
  <unicode hex="0047"/>
  <outline>
    <contour>
      <point x="6.0" y="614.0" type="qcurve" smooth="yes"/>
      <point x="6.0" y="843.0" type="line" smooth="yes"/>
      <point x="6.0" y="1179.0"/>
      <point x="325.11392405063293" y="1485.0"/>
      <point x="624.1518987341772" y="1485.0" type="qcurve" smooth="yes"/>
      <point x="927.9873417721519" y="1485.0"/>
      <point x="1232.6835443037976" y="1221.0"/>
      <point x="1233.253164556962" y="984.0" type="qcurve" smooth="yes"/>
      <point x="1233.253164556962" y="882.0" type="line"/>
      <point x="640.5569620253165" y="882.0" type="line"/>
      <point x="639.9873417721519" y="1052.0" type="line" smooth="yes"/>
      <point x="627.0" y="1068.0"/>
      <point x="637.5569620253165" y="1078.0"/>
      <point x="620.2911392405064" y="1078.0" type="qcurve" smooth="yes"/>
      <point x="619.5569620253165" y="1078.0"/>
      <point x="615.5569620253165" y="1064.0"/>
      <point x="615.5569620253165" y="1049.0" type="qcurve" smooth="yes"/>
      <point x="615.5569620253165" y="378.0" type="line" smooth="yes"/>
      <point x="615.5569620253165" y="359.0"/>
      <point x="618.5569620253165" y="347.0"/>
      <point x="634.5569620253165" y="347.0" type="qcurve" smooth="yes"/>
      <point x="652.126582278481" y="347.0"/>
      <point x="657.2658227848101" y="355.0"/>
      <point x="657.8354430379746" y="375.0" type="qcurve"/>
      <point x="657.8354430379746" y="500.0" type="line"/>
      <point x="629.5569620253165" y="500.0" type="line"/>
      <point x="629.5569620253165" y="856.0" type="line"/>
      <point x="1246.253164556962" y="858.0" type="line"/>
      <point x="1246.253164556962" y="232.0" type="line"/>
      <point x="1190.4430379746836" y="158.0"/>
      <point x="880.7341772151899" y="-28.0"/>
      <point x="632.5569620253165" y="-28.0" type="qcurve" smooth="yes"/>
      <point x="342.26582278481015" y="-28.0"/>
      <point x="6.0" y="276.0"/>
    </contour>
  </outline>
</glyph>
<glyph name="H" format="2">
  <advance width="1210"/>
  <unicode hex="0048"/>
  <outline>
    <contour>
      <point x="10.0" y="0.0" type="line"/>
      <point x="10.0" y="1456.0" type="line"/>
      <point x="590.0" y="1456.0" type="line"/>
      <point x="590.0" y="1001.0" type="line"/>
      <point x="620.0" y="1001.0" type="line"/>
      <point x="620.0" y="1456.0" type="line"/>
      <point x="1200.0" y="1456.0" type="line"/>
      <point x="1200.0" y="0.0" type="line"/>
      <point x="620.0" y="0.0" type="line"/>
      <point x="620.0" y="504.0" type="line"/>
      <point x="590.0" y="504.0" type="line"/>
      <point x="590.0" y="0.0" type="line"/>
    </contour>
  </outline>
</glyph>
<glyph name="N" format="2">
  <advance width="1007"/>
  <unicode hex="004E"/>
  <anchor x="564.7974683544304" y="1432.0" name="top"/>
  <outline>
    <contour>
      <point x="10.0" y="0.0" type="line"/>
      <point x="10.0" y="1456.0" type="line"/>
      <point x="488.36708860759495" y="1456.0" type="line"/>
      <point x="485.84810126582283" y="1245.139240506329" type="line" smooth="yes"/>
      <point x="488.2784810126582" y="1228.139240506329"/>
      <point x="510.84810126582283" y="1130.139240506329"/>
      <point x="516.9873417721519" y="1102.139240506329" type="qcurve"/>
      <point x="517.9873417721519" y="1102.139240506329" type="line"/>
      <point x="515.8481012658228" y="1128.139240506329"/>
      <point x="516.2784810126582" y="1228.139240506329"/>
      <point x="516.2784810126582" y="1245.139240506329" type="qcurve" smooth="yes"/>
      <point x="516.2784810126582" y="1456.0" type="line"/>
      <point x="997.0" y="1456.0" type="line"/>
      <point x="997.0" y="0.0" type="line"/>
      <point x="551.4430379746835" y="0.0" type="line"/>
      <point x="529.4303797468355" y="219.94936708860757" type="line" smooth="yes"/>
      <point x="526.4303797468355" y="233.51898734177212"/>
      <point x="497.43037974683546" y="340.9493670886076"/>
      <point x="492.43037974683546" y="364.9493670886076" type="qcurve"/>
      <point x="491.43037974683546" y="364.9493670886076" type="line"/>
      <point x="491.43037974683546" y="342.9493670886076"/>
      <point x="493.1392405063291" y="232.94936708860757"/>
      <point x="493.1392405063291" y="219.94936708860757" type="qcurve" smooth="yes"/>
      <point x="493.1392405063291" y="0.0" type="line"/>
    </contour>
  </outline>
</glyph>
<glyph name="S" format="2">
  <advance width="1209"/>
  <unicode hex="0053"/>
  <outline>
    <contour>
      <point x="6.0" y="390.0" type="qcurve" smooth="yes"/>
      <point x="6.0" y="505.0" type="line"/>
      <point x="562.0" y="505.0" type="line"/>
      <point x="562.0" y="393.0" type="line" smooth="yes"/>
      <point x="562.0" y="373.0"/>
      <point x="578.0" y="358.0"/>
      <point x="591.0" y="358.0" type="qcurve" smooth="yes"/>
      <point x="603.0" y="358.0"/>
      <point x="618.8607594936709" y="382.0"/>
      <point x="620.0" y="399.3164556962025" type="qcurve" smooth="yes"/>
      <point x="623.9873417721519" y="448.17721518987344"/>
      <point x="595.2278481012659" y="495.8354430379747"/>
      <point x="434.6455696202531" y="555.9746835443038" type="qcurve" smooth="yes"/>
      <point x="218.18987341772151" y="645.4050632911392"/>
      <point x="6.860759493670884" y="856.9493670886076"/>
      <point x="6.860759493670884" y="1047.8987341772151" type="qcurve" smooth="yes"/>
      <point x="6.860759493670884" y="1265.8481012658228"/>
      <point x="331.27848101265823" y="1476.0"/>
      <point x="616.0" y="1476.0" type="qcurve" smooth="yes"/>
      <point x="899.5822784810127" y="1476.0"/>
      <point x="1174.0" y="1257.0"/>
      <point x="1174.0" y="1079.0" type="qcurve" smooth="yes"/>
      <point x="1174.0" y="1000.0" type="line"/>
      <point x="650.0" y="1000.0" type="line"/>
      <point x="650.0" y="1059.0" type="line" smooth="yes"/>
      <point x="650.0" y="1068.0"/>
      <point x="641.0" y="1082.0"/>
      <point x="631.0" y="1082.0" type="qcurve" smooth="yes"/>
      <point x="620.0" y="1082.0"/>
      <point x="608.0" y="1078.392405063291"/>
      <point x="608.0" y="1068.7974683544303" type="qcurve" smooth="yes"/>
      <point x="608.0" y="1046.493670886076"/>
      <point x="639.7215189873418" y="1030.1518987341772"/>
      <point x="762.4810126582279" y="989.4303797468356" type="qcurve" smooth="yes"/>
      <point x="990.506329113924" y="900.5696202531645"/>
      <point x="1202.5696202531647" y="677.8987341772151"/>
      <point x="1202.5696202531647" y="445.53164556962025" type="qcurve" smooth="yes"/>
      <point x="1202.5696202531647" y="226.72151898734177"/>
      <point x="915.1518987341773" y="-18.0"/>
      <point x="616.0" y="-19.0" type="qcurve" smooth="yes"/>
      <point x="318.55696202531647" y="-20.0"/>
      <point x="6.0" y="204.0"/>
    </contour>
  </outline>
</glyph>
<glyph name="V" format="2">
  <advance width="1069"/>
  <unicode hex="0056"/>
  <outline>
    <contour>
      <point x="-10.0" y="1456.0" type="line"/>
      <point x="588.4050632911392" y="1456.0" type="line"/>
      <point x="582.9113924050632" y="608.2405063291139" type="line" smooth="yes"/>
      <point x="583.9113924050632" y="583.2405063291139"/>
      <point x="584.9113924050632" y="568.2405063291139"/>
      <point x="586.9113924050632" y="528.2405063291139" type="qcurve"/>
      <point x="588.9113924050632" y="528.2405063291139" type="line"/>
      <point x="589.9113924050632" y="568.2405063291139"/>
      <point x="589.9113924050632" y="583.2405063291139"/>
      <point x="590.9113924050632" y="608.2405063291139" type="qcurve" smooth="yes"/>
      <point x="594.5569620253165" y="1456.0" type="line"/>
      <point x="1079.126582278481" y="1456.0" type="line"/>
      <point x="874.126582278481" y="0.0" type="line"/>
      <point x="199.0" y="0.0" type="line"/>
    </contour>
  </outline>
</glyph>
<glyph name="Z" format="2">
  <advance width="1001"/>
  <unicode hex="005A"/>
  <outline>
    <contour>
      <point x="-12.518987341772153" y="0.0" type="line"/>
      <point x="-12.518987341772153" y="314.0" type="line"/>
      <point x="281.7848101265823" y="990.0" type="line"/>
      <point x="0.4810126582278471" y="990.0" type="line"/>
      <point x="0.4810126582278471" y="1456.0" type="line"/>
      <point x="1010.5316455696202" y="1456.0" type="line"/>
      <point x="1010.5316455696202" y="1122.0" type="line"/>
      <point x="712.2405063291139" y="446.0" type="line"/>
      <point x="1014.5316455696202" y="446.0" type="line"/>
      <point x="1014.5316455696202" y="0.0" type="line"/>
    </contour>
  </outline>
</glyph>
<glyph name="a" format="2">
  <advance width="1178"/>
  <unicode hex="0061"/>
  <anchor x="590.7215189873418" y="914.0" name="top"/>
  <outline>
    <contour>
      <point x="-1.0" y="274.0" type="qcurve" smooth="yes"/>
      <point x="-1.0" y="414.0"/>
      <point x="233.55696202531647" y="576.0"/>
      <point x="530.7215189873418" y="576.0" type="qcurve" smooth="yes"/>
      <point x="591.7215189873418" y="576.0" type="line"/>
      <point x="591.7215189873418" y="644.0" type="line" smooth="yes"/>
      <point x="591.7215189873418" y="649.0"/>
      <point x="587.7215189873418" y="655.0"/>
      <point x="582.7215189873418" y="655.0" type="qcurve" smooth="yes"/>
      <point x="577.7215189873418" y="655.0"/>
      <point x="573.7215189873418" y="649.0"/>
      <point x="573.7215189873418" y="645.0" type="qcurve" smooth="yes"/>
      <point x="573.7215189873418" y="586.0" type="line"/>
      <point x="42.43037974683544" y="589.0" type="line"/>
      <point x="42.43037974683544" y="629.0" type="line" smooth="yes"/>
      <point x="38.43037974683544" y="782.0"/>
      <point x="350.27848101265823" y="946.0"/>
      <point x="609.7215189873418" y="946.0" type="qcurve" smooth="yes"/>
      <point x="862.3037974683544" y="946.0"/>
      <point x="1174.4430379746836" y="786.0"/>
      <point x="1174.4430379746836" y="599.0" type="qcurve" smooth="yes"/>
      <point x="1174.4430379746836" y="97.0" type="line" smooth="yes"/>
      <point x="1174.4430379746836" y="63.0"/>
      <point x="1180.4430379746836" y="26.0"/>
      <point x="1188.4430379746836" y="12.0" type="qcurve"/>
      <point x="1188.4430379746836" y="0.0" type="line"/>
      <point x="608.7215189873418" y="0.0" type="line"/>
      <point x="603.7215189873418" y="8.0"/>
      <point x="598.7215189873418" y="35.0"/>
      <point x="598.7215189873418" y="45.0" type="qcurve"/>
      <point x="571.5822784810126" y="23.0"/>
      <point x="432.6455696202532" y="-13.0"/>
      <point x="342.5443037974684" y="-13.0" type="qcurve" smooth="yes"/>
      <point x="205.32911392405063" y="-13.0"/>
      <point x="-1.0" y="124.0"/>
    </contour>
    <contour>
      <point x="566.7215189873418" y="316.0" type="qcurve" smooth="yes"/>
      <point x="566.7215189873418" y="275.0"/>
      <point x="569.0253164556962" y="258.0"/>
      <point x="571.3291139240506" y="258.0" type="qcurve" smooth="yes"/>
      <point x="581.8860759493671" y="258.0"/>
      <point x="594.7215189873418" y="266.0"/>
      <point x="594.7215189873418" y="272.0" type="qcurve"/>
      <point x="594.7215189873418" y="377.0" type="line"/>
      <point x="586.7215189873418" y="377.0" type="line" smooth="yes"/>
      <point x="579.7215189873418" y="377.0"/>
      <point x="566.7215189873418" y="363.0"/>
    </contour>
  </outline>
</glyph>
<glyph name="c" format="2">
  <advance width="1174"/>
  <unicode hex="0063"/>
  <anchor x="615.1392405063291" y="0" name="bottom"/>
  <outline>
    <contour>
      <point x="4.0" y="446.0" type="qcurve" smooth="yes"/>
      <point x="4.0" y="505.0" type="line" smooth="yes"/>
      <point x="4.0" y="731.0"/>
      <point x="331.4177215189873" y="947.0"/>
      <point x="606.1392405063291" y="947.0" type="qcurve" smooth="yes"/>
      <point x="900.1392405063291" y="947.0"/>
      <point x="1170.2784810126582" y="723.0"/>
      <point x="1181.2784810126582" y="523.0" type="qcurve" smooth="yes"/>
      <point x="1184.2784810126582" y="475.0" type="line"/>
      <point x="601.1392405063291" y="475.0" type="line"/>
      <point x="601.1392405063291" y="551.0" type="line" smooth="yes"/>
      <point x="601.1392405063291" y="555.0"/>
      <point x="597.1392405063291" y="559.0"/>
      <point x="592.1392405063291" y="559.0" type="qcurve" smooth="yes"/>
      <point x="587.1392405063291" y="559.0"/>
      <point x="580.1392405063291" y="554.0"/>
      <point x="580.1392405063291" y="549.0" type="qcurve" smooth="yes"/>
      <point x="580.1392405063291" y="374.0" type="line" smooth="yes"/>
      <point x="580.1392405063291" y="365.0"/>
      <point x="586.1392405063291" y="355.0"/>
      <point x="592.1392405063291" y="355.0" type="qcurve" smooth="yes"/>
      <point x="597.1392405063291" y="355.0"/>
      <point x="601.1392405063291" y="361.0"/>
      <point x="601.1392405063291" y="366.0" type="qcurve" smooth="yes"/>
      <point x="601.1392405063291" y="451.0" type="line"/>
      <point x="1185.2784810126582" y="451.0" type="line"/>
      <point x="1183.2784810126582" y="399.0" type="line" smooth="yes"/>
      <point x="1176.2784810126582" y="202.0"/>
      <point x="889.1392405063291" y="-22.0"/>
      <point x="615.1392405063291" y="-22.0" type="qcurve" smooth="yes"/>
      <point x="333.4177215189873" y="-22.0"/>
      <point x="4.0" y="204.0"/>
    </contour>
  </outline>
</glyph>
<glyph name="m" format="2">
  <advance width="1781"/>
  <unicode hex="006D"/>
  <outline>
    <contour>
      <point x="8.0" y="0.0" type="line"/>
      <point x="8.0" y="914.0" type="line"/>
      <point x="579.7215189873418" y="914.0" type="line"/>
      <point x="579.7215189873418" y="832.0" type="line"/>
      <point x="579.7215189873418" y="832.0" type="line"/>
      <point x="599.4303797468355" y="862.0"/>
      <point x="745.6708860759494" y="938.0"/>
      <point x="864.506329113924" y="938.0" type="qcurve" smooth="yes"/>
      <point x="985.873417721519" y="938.0"/>
      <point x="1126.9367088607596" y="867.0"/>
      <point x="1159.493670886076" y="815.0" type="qcurve"/>
      <point x="1168.3544303797469" y="815.0" type="line"/>
      <point x="1198.1898734177216" y="864.0"/>
      <point x="1340.8101265822784" y="938.0"/>
      <point x="1455.9240506329115" y="938.0" type="qcurve" smooth="yes"/>
      <point x="1599.8481012658228" y="938.0"/>
      <point x="1775.1645569620255" y="819.0"/>
      <point x="1775.1645569620255" y="690.0" type="qcurve" smooth="yes"/>
      <point x="1775.1645569620255" y="0.0" type="line"/>
      <point x="1199.4430379746836" y="0.0" type="line"/>
      <point x="1199.4430379746836" y="566.0" type="line" smooth="yes"/>
      <point x="1199.4430379746836" y="571.0"/>
      <point x="1195.4430379746836" y="576.0"/>
      <point x="1189.4430379746836" y="576.0" type="qcurve" smooth="yes"/>
      <point x="1182.4430379746836" y="576.0"/>
      <point x="1179.4430379746836" y="566.0"/>
      <point x="1179.4430379746836" y="557.0" type="qcurve"/>
      <point x="1179.4430379746836" y="0.0" type="line"/>
      <point x="603.7215189873418" y="0.0" type="line"/>
      <point x="603.7215189873418" y="566.0" type="line" smooth="yes"/>
      <point x="603.7215189873418" y="571.0"/>
      <point x="599.7215189873418" y="576.0"/>
      <point x="593.7215189873418" y="576.0" type="qcurve" smooth="yes"/>
      <point x="586.7215189873418" y="576.0"/>
      <point x="583.7215189873418" y="566.0"/>
      <point x="583.7215189873418" y="557.0" type="qcurve"/>
      <point x="583.7215189873418" y="0.0" type="line"/>
    </contour>
  </outline>
</glyph>
<glyph name="o" format="2">
  <advance width="1187"/>
  <unicode hex="006F"/>
  <anchor x="593.1392405063291" y="914.0" name="top"/>
  <outline>
    <contour>
      <point x="4.0" y="445.0" type="qcurve" smooth="yes"/>
      <point x="4.0" y="509.0" type="line" smooth="yes"/>
      <point x="4.0" y="725.0"/>
      <point x="325.55696202531647" y="947.0"/>
      <point x="593.1392405063291" y="947.0" type="qcurve" smooth="yes"/>
      <point x="863.7215189873417" y="947.0"/>
      <point x="1183.2784810126582" y="725.0"/>
      <point x="1183.2784810126582" y="509.0" type="qcurve" smooth="yes"/>
      <point x="1183.2784810126582" y="445.0" type="line" smooth="yes"/>
      <point x="1183.2784810126582" y="211.0"/>
      <point x="862.7215189873417" y="-22.0"/>
      <point x="593.1392405063291" y="-22.0" type="qcurve" smooth="yes"/>
      <point x="326.55696202531647" y="-22.0"/>
      <point x="4.0" y="211.0"/>
    </contour>
    <contour>
      <point x="580.1392405063291" y="549.0" type="qcurve" smooth="yes"/>
      <point x="580.1392405063291" y="364.0" type="line" smooth="yes"/>
      <point x="580.1392405063291" y="356.0"/>
      <point x="586.1392405063291" y="351.0"/>
      <point x="594.1392405063291" y="351.0" type="qcurve" smooth="yes"/>
      <point x="601.1392405063291" y="351.0"/>
      <point x="607.1392405063291" y="356.0"/>
      <point x="607.1392405063291" y="363.0" type="qcurve" smooth="yes"/>
      <point x="607.1392405063291" y="549.0" type="line" smooth="yes"/>
      <point x="607.1392405063291" y="559.0"/>
      <point x="600.1392405063291" y="566.0"/>
      <point x="594.1392405063291" y="566.0" type="qcurve" smooth="yes"/>
      <point x="586.1392405063291" y="566.0"/>
      <point x="580.1392405063291" y="559.0"/>
    </contour>
  </outline>
</glyph>
<glyph name="p" format="2">
  <advance width="1183"/>
  <unicode hex="0070"/>
  <outline>
    <contour>
      <point x="8.0" y="-388.0" type="line"/>
      <point x="8.0" y="914.0" type="line"/>
      <point x="572.7215189873418" y="914.0" type="line"/>
      <point x="572.7215189873418" y="861.0" type="line"/>
      <point x="576.7215189873417" y="862.0" type="line"/>
      <point x="595.2911392405064" y="885.0"/>
      <point x="702.5316455696203" y="940.0"/>
      <point x="806.506329113924" y="940.0" type="qcurve" smooth="yes"/>
      <point x="971.8354430379746" y="940.0"/>
      <point x="1178.860759493671" y="724.0"/>
      <point x="1178.860759493671" y="509.0" type="qcurve" smooth="yes"/>
      <point x="1178.860759493671" y="445.0" type="line" smooth="yes"/>
      <point x="1178.860759493671" y="211.0"/>
      <point x="963.8354430379748" y="-15.0"/>
      <point x="801.506329113924" y="-15.0" type="qcurve" smooth="yes"/>
      <point x="718.5316455696203" y="-15.0"/>
      <point x="624.8607594936709" y="-7.0"/>
      <point x="579.7215189873417" y="12.0" type="qcurve"/>
      <point x="579.7215189873417" y="-388.0" type="line"/>
    </contour>
    <contour>
      <point x="579.7215189873418" y="364.0" type="line"/>
      <point x="579.7215189873418" y="357.0"/>
      <point x="585.7215189873418" y="351.0"/>
      <point x="593.7215189873418" y="351.0" type="qcurve" smooth="yes"/>
      <point x="600.7215189873418" y="351.0"/>
      <point x="606.7215189873418" y="356.0"/>
      <point x="606.7215189873418" y="363.0" type="qcurve" smooth="yes"/>
      <point x="606.7215189873418" y="549.0" type="line" smooth="yes"/>
      <point x="606.7215189873418" y="559.0"/>
      <point x="599.7215189873418" y="566.0"/>
      <point x="593.7215189873418" y="566.0" type="qcurve" smooth="yes"/>
      <point x="585.7215189873418" y="566.0"/>
      <point x="579.7215189873418" y="559.0"/>
      <point x="579.7215189873418" y="549.0" type="qcurve"/>
    </contour>
  </outline>
</glyph>
<glyph name="u" format="2">
  <advance width="1185"/>
  <unicode hex="0075"/>
  <anchor x="591.7215189873418" y="914.0" name="top"/>
  <outline>
    <contour>
      <point x="6.0" y="224.0" type="qcurve" smooth="yes"/>
      <point x="6.0" y="914.0" type="line"/>
      <point x="581.7215189873418" y="914.0" type="line"/>
      <point x="581.7215189873418" y="348.0" type="line" smooth="yes"/>
      <point x="581.7215189873418" y="343.0"/>
      <point x="585.7215189873418" y="338.0"/>
      <point x="591.7215189873418" y="338.0" type="qcurve" smooth="yes"/>
      <point x="598.7215189873418" y="338.0"/>
      <point x="601.7215189873418" y="348.0"/>
      <point x="601.7215189873418" y="357.0" type="qcurve"/>
      <point x="601.7215189873418" y="914.0" type="line"/>
      <point x="1177.4430379746836" y="914.0" type="line"/>
      <point x="1177.4430379746836" y="0.0" type="line"/>
      <point x="605.7215189873418" y="0.0" type="line"/>
      <point x="605.7215189873418" y="79.0" type="line"/>
      <point x="602.7215189873418" y="79.0" type="line"/>
      <point x="587.0126582278481" y="54.0"/>
      <point x="450.7721518987342" y="-24.0"/>
      <point x="330.9367088607595" y="-24.0" type="qcurve" smooth="yes"/>
      <point x="184.31645569620252" y="-24.0"/>
      <point x="6.0" y="95.0"/>
    </contour>
  </outline>
</glyph>
<glyph name="threesuperior" format="2">
  <advance width="751"/>
  <unicode hex="00B3"/>
  <outline>
    <contour>
      <point x="63.0" y="920.0" type="qcurve"/>
      <point x="220.0" y="920.0" type="line"/>
      <point x="220.0" y="875.0"/>
      <point x="300.0" y="824.0"/>
      <point x="366.0" y="824.0" type="qcurve" smooth="yes"/>
      <point x="435.0" y="824.0"/>
      <point x="499.0" y="876.0"/>
      <point x="499.0" y="925.0" type="qcurve" smooth="yes"/>
      <point x="499.0" y="978.0"/>
      <point x="423.0" y="1028.0"/>
      <point x="350.0" y="1029.0" type="qcurve" smooth="yes"/>
      <point x="266.0" y="1029.0" type="line"/>
      <point x="266.0" y="1151.0" type="line"/>
      <point x="350.0" y="1151.0" type="line" smooth="yes"/>
      <point x="422.0" y="1151.0"/>
      <point x="486.0" y="1207.0"/>
      <point x="486.0" y="1255.0" type="qcurve" smooth="yes"/>
      <point x="486.0" y="1299.0"/>
      <point x="432.0" y="1349.0"/>
      <point x="363.0" y="1349.0" type="qcurve" smooth="yes"/>
      <point x="306.0" y="1349.0"/>
      <point x="231.0" y="1299.0"/>
      <point x="231.0" y="1256.0" type="qcurve"/>
      <point x="74.0" y="1256.0" type="line"/>
      <point x="74.0" y="1357.0"/>
      <point x="241.0" y="1487.0"/>
      <point x="360.0" y="1487.0" type="qcurve" smooth="yes"/>
      <point x="490.0" y="1487.0"/>
      <point x="656.0" y="1372.0"/>
      <point x="656.0" y="1263.0" type="qcurve" smooth="yes"/>
      <point x="656.0" y="1212.0"/>
      <point x="593.0" y="1120.0"/>
      <point x="533.0" y="1098.0" type="qcurve"/>
      <point x="601.0" y="1075.0"/>
      <point x="667.0" y="983.0"/>
      <point x="667.0" y="917.0" type="qcurve" smooth="yes"/>
      <point x="667.0" y="807.0"/>
      <point x="491.0" y="686.0"/>
      <point x="361.0" y="686.0" type="qcurve" smooth="yes"/>
      <point x="259.39240506329116" y="686.0"/>
      <point x="63.0" y="795.7215189873418"/>
    </contour>
  </outline>
</glyph>
<glyph name="dollar.rvrn" format="2">
  <advance width="1130"/>
  <outline>
    <contour>
      <point x="42.0253164556962" y="390.86075949367086" type="qcurve" smooth="yes"/>
      <point x="42.0253164556962" y="462.0" type="line"/>
      <point x="489.87341772151905" y="462.0" type="line"/>
      <point x="489.87341772151905" y="427.8607594936709" type="line" smooth="yes"/>
      <point x="488.873417721519" y="322.746835443038"/>
      <point x="520.2911392405064" y="256.11392405063293"/>
      <point x="567.7088607594936" y="256.11392405063293" type="qcurve" smooth="yes"/>
      <point x="610.126582278481" y="256.11392405063293"/>
      <point x="635.9746835443038" y="318.0253164556962"/>
      <point x="635.9746835443038" y="394.0" type="qcurve" smooth="yes"/>
      <point x="635.9746835443038" y="464.4050632911392"/>
      <point x="613.2278481012659" y="505.6835443037975"/>
      <point x="460.9240506329114" y="558.6708860759494" type="qcurve" smooth="yes"/>
      <point x="250.34177215189868" y="634.367088607595"/>
      <point x="50.02531645569621" y="850.3164556962025"/>
      <point x="50.02531645569621" y="1043.8481012658228" type="qcurve" smooth="yes"/>
      <point x="50.02531645569621" y="1266.240506329114"/>
      <point x="329.0" y="1467.0"/>
      <point x="556.7088607594936" y="1467.0" type="qcurve" smooth="yes"/>
      <point x="785.2784810126583" y="1467.0"/>
      <point x="1066.8227848101267" y="1307.1012658227849"/>
      <point x="1066.8227848101267" y="1076.5696202531644" type="qcurve" smooth="yes"/>
      <point x="1066.8227848101267" y="1016.0" type="line"/>
      <point x="624.9746835443038" y="1016.0" type="line"/>
      <point x="624.9746835443038" y="1042.5696202531644" type="line" smooth="yes"/>
      <point x="624.9746835443038" y="1126.5443037974683"/>
      <point x="603.5569620253165" y="1199.5696202531647"/>
      <point x="564.7088607594937" y="1199.5696202531647" type="qcurve" smooth="yes"/>
      <point x="530.8607594936709" y="1199.5696202531647"/>
      <point x="509.012658227848" y="1141.253164556962"/>
      <point x="509.012658227848" y="1070.8481012658228" type="qcurve" smooth="yes"/>
      <point x="509.012658227848" y="1008.0126582278481"/>
      <point x="533.4810126582279" y="982.1518987341773"/>
      <point x="706.0632911392405" y="928.5949367088608" type="qcurve" smooth="yes"/>
      <point x="898.9240506329115" y="866.6075949367089"/>
      <point x="1093.9620253164558" y="636.1012658227849"/>
      <point x="1093.9620253164558" y="434.0" type="qcurve" smooth="yes"/>
      <point x="1093.9620253164558" y="208.46835443037975"/>
      <point x="805.8481012658227" y="-8.582278481012658"/>
      <point x="573.7088607594937" y="-8.582278481012658" type="qcurve" smooth="yes"/>
      <point x="342.70886075949363" y="-8.582278481012658"/>
      <point x="42.0253164556962" y="147.18987341772151"/>
    </contour>
    <contour>
      <point x="389.10126582278485" y="-139.60759493670886" type="line"/>
      <point x="389.10126582278485" y="158.0" type="line"/>
      <point x="755.7341772151899" y="158.0" type="line"/>
      <point x="755.7341772151899" y="84.69620253164557" type="line"/>
      <point x="766.1518987341773" y="80.39240506329114" type="line"/>
      <point x="766.1518987341773" y="-139.60759493670886" type="line"/>
    </contour>
    <contour>
      <point x="387.126582278481" y="1228.0" type="line"/>
      <point x="387.126582278481" y="1354.3417721518988" type="line"/>
      <point x="376.70886075949363" y="1364.3417721518988" type="line"/>
      <point x="376.70886075949363" y="1616.8227848101267" type="line"/>
      <point x="753.7594936708861" y="1616.8227848101267" type="line"/>
      <point x="753.7594936708861" y="1228.0" type="line"/>
    </contour>
  </outline>
</glyph>
<glyph name="macroncomb.case" format="2">
  <advance width="1024"/>
  <outline>
    <contour>
      <point x="216.0" y="1674.0" type="line"/>
      <point x="216.0" y="1830.0" type="line"/>
      <point x="808.0" y="1830.0" type="line"/>
      <point x="808.0" y="1674.0" type="line"/>
    </contour>
  </outline>
</glyph>
<glyph name="zerosuperior" format="2">
  <advance width="701"/>
  <outline>
    <contour>
      <point x="16.708860759493675" y="928.0" type="qcurve" smooth="yes"/>
      <point x="16.708860759493675" y="1266.0" type="line" smooth="yes"/>
      <point x="16.708860759493675" y="1375.0"/>
      <point x="214.60759493670886" y="1496.0"/>
      <point x="351.9493670886076" y="1496.0" type="qcurve" smooth="yes"/>
      <point x="488.29113924050637" y="1496.0"/>
      <point x="684.620253164557" y="1375.0"/>
      <point x="684.620253164557" y="1266.0" type="qcurve" smooth="yes"/>
      <point x="684.620253164557" y="928.0" type="line" smooth="yes"/>
      <point x="684.620253164557" y="803.0"/>
      <point x="488.29113924050637" y="675.0"/>
      <point x="351.9493670886076" y="675.0" type="qcurve" smooth="yes"/>
      <point x="214.60759493670886" y="675.0"/>
      <point x="16.708860759493675" y="803.0"/>
    </contour>
    <contour>
      <point x="323.0886075949367" y="911.0" type="line" smooth="yes"/>
      <point x="323.0886075949367" y="873.0"/>
      <point x="336.9493670886076" y="865.0"/>
      <point x="351.9493670886076" y="865.0" type="qcurve" smooth="yes"/>
      <point x="364.9493670886076" y="865.0"/>
      <point x="378.24050632911394" y="873.0"/>
      <point x="378.24050632911394" y="911.0" type="qcurve" smooth="yes"/>
      <point x="378.24050632911394" y="1258.0" type="line" smooth="yes"/>
      <point x="378.24050632911394" y="1296.0"/>
      <point x="365.9493670886076" y="1307.0"/>
      <point x="351.9493670886076" y="1307.0" type="qcurve" smooth="yes"/>
      <point x="336.94936708860763" y="1307.0"/>
      <point x="323.0886075949367" y="1296.0"/>
      <point x="323.0886075949367" y="1258.0" type="qcurve" smooth="yes"/>
    </contour>
  </outline>
</glyph>
